HIERARCHY
ROOT Hips
{
	OFFSET -1.602300 6.242603 43.997101
	CHANNELS 6 Xposition Yposition Zposition Zrotation Xrotation Yrotation
	JOINT Chest
	{
		OFFSET -0.204900 1.598101 7.917301
		CHANNELS 6 Xposition Yposition Zposition Zrotation Xrotation Yrotation
		JOINT Chest2
		{
			OFFSET 0.000000 0.000000 3.404099
			CHANNELS 6 Xposition Yposition Zposition Zrotation Xrotation Yrotation
			JOINT Neck
			{
				OFFSET 0.000000 0.000000 7.928600
				CHANNELS 6 Xposition Yposition Zposition Zrotation Xrotation Yrotation
				JOINT Head
				{
					OFFSET 0.000000 0.000000 2.173897
					CHANNELS 6 Xposition Yposition Zposition Zrotation Xrotation Yrotation
					End Site
					{
						OFFSET 0.000000 0.000001 10.404503
					}
				}
			}
			JOINT LeftCollar
			{
				OFFSET 2.833800 -1.396299 4.843300
				CHANNELS 6 Xposition Yposition Zposition Zrotation Xrotation Yrotation
				JOINT LeftShoulder
				{
					OFFSET 4.363600 0.000000 0.000000
					CHANNELS 6 Xposition Yposition Zposition Zrotation Xrotation Yrotation
					JOINT LeftElbow
					{
						OFFSET 0.000000 -0.000001 -10.306900
						CHANNELS 6 Xposition Yposition Zposition Zrotation Xrotation Yrotation
						JOINT LeftWrist
						{
							OFFSET 0.000000 -0.000001 -12.404900
							CHANNELS 6 Xposition Yposition Zposition Zrotation Xrotation Yrotation
							End Site
							{
								OFFSET 0.000000 0.000000 -2.173901
							}
						}
					}
				}
			}
			JOINT RightCollar
			{
				OFFSET -2.354800 -1.897200 5.063099
				CHANNELS 6 Xposition Yposition Zposition Zrotation Xrotation Yrotation
				JOINT RightShoulder
				{
					OFFSET -4.375800 0.000000 0.000000
					CHANNELS 6 Xposition Yposition Zposition Zrotation Xrotation Yrotation
					JOINT RightElbow
					{
						OFFSET 0.000000 -0.000001 -10.005001
						CHANNELS 6 Xposition Yposition Zposition Zrotation Xrotation Yrotation
						JOINT RightWrist
						{
							OFFSET 0.000000 -0.000001 -13.174900
							CHANNELS 6 Xposition Yposition Zposition Zrotation Xrotation Yrotation
							End Site
							{
								OFFSET 0.000000 0.000000 -2.173901
							}
						}
					}
				}
			}
		}
	}
	JOINT LeftHip
	{
		OFFSET 2.240600 0.386800 -2.614101
		CHANNELS 6 Xposition Yposition Zposition Zrotation Xrotation Yrotation
		JOINT LeftKnee
		{
			OFFSET 0.000000 -0.000001 -18.592899
			CHANNELS 6 Xposition Yposition Zposition Zrotation Xrotation Yrotation
			JOINT LeftAnkle
			{
				OFFSET 0.000000 -0.000001 -18.765800
				CHANNELS 6 Xposition Yposition Zposition Zrotation Xrotation Yrotation
				End Site
				{
					OFFSET 0.000000 -8.655000 0.000000
				}
			}
		}
	}
	JOINT RightHip
	{
		OFFSET -2.014900 -0.220900 -2.615898
		CHANNELS 6 Xposition Yposition Zposition Zrotation Xrotation Yrotation
		JOINT RightKnee
		{
			OFFSET 0.000000 -0.000001 -18.633900
			CHANNELS 6 Xposition Yposition Zposition Zrotation Xrotation Yrotation
			JOINT RightAnkle
			{
				OFFSET 0.000000 -0.000001 -18.285101
				CHANNELS 6 Xposition Yposition Zposition Zrotation Xrotation Yrotation
				End Site
				{
					OFFSET 0.000000 -7.524500 0.000000
				}
			}
		}
	}
}
MOTION
Frames: 8
Frame Time: 0.041667
-11.275402 24.659605 9.694107 1.992021 2.241872 -13.470467 -0.204900 1.598099 7.917305 -8.620622 21.699231 24.209168 -0.000001 -0.000001 3.404100 -17.994931 -15.496782 -3.746810 0.000000 -0.000001 7.928598 53.118801 7.160164 -21.567378 0.000000 0.000001 2.173911 5.760559 2.375242 8.688293 2.833804 -1.396298 4.843299 0.491057 7.828940 37.830212 4.363592 0.000006 -0.000010 -33.304419 -7.207532 -102.214846 -0.000007 0.000002 -10.306898 -87.523840 -151.248160 -161.562278 0.000005 0.000008 -12.404900 -124.743119 180.829463 -127.766010 -2.354801 -1.897201 5.063103 10.874169 14.963394 -3.811206 -4.375791 0.000003 -0.000007 93.210164 -58.372040 178.353369 -0.000013 0.000011 -10.005001 -32.860556 20.295197 -103.636625 -0.000010 0.000002 -13.174895 102.940793 -223.194982 154.727240 2.240596 0.386804 -2.614101 155.571096 -17.953371 98.109657 0.000002 0.000002 -18.592897 -18.868044 48.836286 -27.291261 0.000001 -0.000001 -18.765797 -26.308448 58.688359 15.896581 -2.014899 -0.220894 -2.615898 -96.184186 -23.860424 -80.877172 -0.000000 0.000005 -18.633888 166.856044 31.280450 -174.185806 -0.000005 -0.000001 -18.285086 -41.935695 29.086402 -199.054880
-11.274901 24.669504 9.686504 2.053687 2.229724 -13.467638 -0.204900 1.598105 7.917313 -8.678685 21.711998 24.145750 0.000000 -0.000001 3.404098 -17.903539 -15.441070 -3.725276 -0.000003 0.000005 7.928606 53.104390 7.535555 -21.447520 0.000002 0.000000 2.173909 5.849468 2.384544 9.120622 2.833802 -1.396298 4.843304 0.089824 8.059198 38.426193 4.363586 0.000007 -0.000003 -33.136014 -6.974945 -102.808581 -0.000001 0.000004 -10.306898 -87.781181 -150.976824 -161.462858 0.000005 0.000006 -12.404900 -124.778035 180.906617 -126.349006 -2.354802 -1.897201 5.063103 10.963417 15.221959 -3.822159 -4.375791 0.000001 -0.000003 92.501272 -58.264908 177.921879 -0.000006 0.000006 -10.005005 -33.639450 18.924706 -103.467681 -0.000002 0.000004 -13.174897 101.632682 -223.246372 154.677680 2.240596 0.386808 -2.614098 155.495308 -17.978615 98.126008 0.000003 0.000002 -18.592899 -18.955783 48.853813 -27.212199 0.000000 0.000000 -18.765797 -26.161592 58.695593 15.751108 -2.014897 -0.220884 -2.615898 -96.292424 -23.767001 -80.922169 -0.000000 0.000003 -18.633888 166.731160 31.208439 -174.075499 -0.000006 0.000000 -18.285086 -41.733023 29.076631 -199.339631
-11.275000 24.676601 9.680901 2.107859 2.213676 -13.458369 -0.204899 1.598096 7.917313 -8.731687 21.740472 24.084531 0.000001 0.000002 3.404105 -17.676016 -15.365547 -3.952597 -0.000003 0.000002 7.928599 53.023766 8.096297 -21.227717 0.000003 -0.000003 2.173904 5.962475 2.408895 9.634585 2.833804 -1.396299 4.843297 -0.458848 8.213577 38.908261 4.363591 0.000006 -0.000006 -32.733576 -6.499224 -102.872614 -0.000005 0.000003 -10.306896 -87.367156 -150.397378 -161.171482 0.000004 0.000009 -12.404899 -124.940375 180.980793 -124.909557 -2.354804 -1.897203 5.063102 11.029325 15.525502 -3.508139 -4.375792 0.000000 -0.000015 91.470146 -58.182857 177.359864 -0.000010 0.000006 -10.005007 -34.111146 19.025845 -103.486846 -0.000009 0.000003 -13.174898 101.779668 -223.138537 154.712404 2.240594 0.386801 -2.614100 155.431227 -18.000636 98.132258 0.000002 0.000002 -18.592899 -19.125961 48.890689 -27.064157 -0.000000 -0.000001 -18.765797 -25.960321 58.710045 15.591526 -2.014898 -0.220896 -2.615895 -96.382992 -23.685153 -80.948595 -0.000000 0.000003 -18.633888 166.580200 31.125657 -173.945698 -0.000005 0.000000 -18.285084 -41.700234 29.111820 -199.541791
-11.276001 24.686604 9.673813 2.136555 2.188509 -13.444696 -0.204902 1.598095 7.917305 -8.774695 21.828448 24.032094 0.000002 0.000005 3.404101 -17.560976 -15.272359 -3.914021 0.000001 -0.000002 7.928604 53.023510 8.339496 -21.098936 0.000001 -0.000000 2.173909 5.963908 2.419626 9.831521 2.833810 -1.396303 4.843300 -0.564992 8.263603 38.952835 4.363597 0.000006 -0.000007 -32.414292 -5.719923 -102.771370 -0.000006 0.000003 -10.306902 -86.310983 -149.897667 -160.525360 0.000003 0.000006 -12.404904 -125.520285 181.126522 -123.359760 -2.354800 -1.897202 5.063102 10.989724 15.749706 -3.189192 -4.375793 0.000002 -0.000009 91.711463 -58.376698 177.612389 -0.000012 0.000004 -10.004999 -34.237563 18.922754 -103.366717 -0.000007 0.000001 -13.174896 101.733571 -223.193097 154.868201 2.240592 0.386800 -2.614102 155.380452 -18.065372 98.134785 0.000004 0.000002 -18.592897 -19.329685 48.934627 -26.879528 -0.000001 -0.000000 -18.765795 -25.730648 58.724635 15.487662 -2.014900 -0.220892 -2.615899 -96.418372 -23.654670 -80.955780 -0.000000 0.000002 -18.633886 166.409923 31.080096 -173.832850 -0.000006 -0.000002 -18.285084 -41.624979 29.038105 -199.601869
-11.277301 24.693106 9.667812 2.091009 1.961135 -13.553520 -0.204900 1.598098 7.917302 -8.915647 22.267323 24.288967 -0.000001 0.000000 3.404098 -17.421186 -15.266941 -3.894375 -0.000004 0.000001 7.928601 52.818973 8.547911 -20.874086 0.000002 -0.000005 2.173904 6.087677 2.470783 10.042696 2.833808 -1.396303 4.843298 -0.595138 8.222503 38.983171 4.363593 0.000009 -0.000002 -32.388904 -5.389325 -102.842158 -0.000002 0.000002 -10.306903 -86.412562 -149.383477 -160.254898 0.000004 0.000004 -12.404898 -125.691914 181.290624 -121.700092 -2.354803 -1.897202 5.063102 10.895943 15.652219 -3.005841 -4.375794 0.000001 -0.000004 91.550524 -58.558306 177.423070 -0.000011 0.000007 -10.005009 -34.316243 18.953804 -103.332812 -0.000003 0.000001 -13.174893 101.814147 -223.194244 155.066604 2.240594 0.386803 -2.614107 155.300702 -18.236072 97.916608 0.000003 0.000002 -18.592899 -19.544183 48.967081 -26.692639 0.000001 0.000001 -18.765795 -25.553561 58.746792 15.443232 -2.014897 -0.220892 -2.615903 -96.348882 -23.757409 -80.743887 0.000000 0.000006 -18.633886 166.244824 31.029454 -173.711368 -0.000005 -0.000002 -18.285080 -41.549239 28.970077 -199.664051
-11.279202 24.701601 9.661705 2.031167 1.757211 -13.664517 -0.204899 1.598097 7.917305 -9.029750 22.655452 24.533025 0.000002 -0.000003 3.404105 -17.263399 -15.224973 -3.867689 0.000000 0.000003 7.928598 52.788200 8.681075 -20.801659 0.000001 -0.000001 2.173898 6.037737 2.426460 9.951776 2.833806 -1.396301 4.843299 -0.463374 8.067543 38.562305 4.363599 0.000008 -0.000004 -32.402465 -5.306511 -102.377965 -0.000004 0.000005 -10.306893 -86.645082 -148.787161 -159.976622 0.000003 0.000005 -12.404899 -125.911354 181.389607 -119.993460 -2.354801 -1.897195 5.063100 10.858394 15.468456 -2.685947 -4.375788 0.000000 -0.000011 90.649738 -58.797513 176.606999 -0.000012 0.000008 -10.005010 -34.581784 19.210761 -103.302697 -0.000006 0.000001 -13.174892 102.109402 -223.140819 155.092996 2.240596 0.386803 -2.614101 155.235392 -18.418532 97.698623 0.000002 0.000002 -18.592896 -19.799093 49.020613 -26.455729 0.000000 0.000000 -18.765795 -25.302082 58.755951 15.383326 -2.014899 -0.220895 -2.615897 -96.261633 -23.867985 -80.552417 0.000000 0.000006 -18.633884 166.062540 30.975895 -173.591689 -0.000006 -0.000000 -18.285086 -41.470989 28.912686 -199.709185
-11.282602 24.710703 9.656620 1.963186 1.573297 -13.602791 -0.204897 1.598098 7.917301 -9.057568 23.047403 24.582083 -0.000002 -0.000005 3.404105 -17.135322 -15.226756 -3.854703 0.000001 -0.000000 7.928602 52.828224 8.883710 -20.852293 0.000004 -0.000005 2.173906 5.902214 2.431483 9.653295 2.833801 -1.396300 4.843309 -0.603686 8.104775 38.255924 4.363593 0.000005 -0.000003 -32.401693 -5.965513 -102.112079 -0.000006 0.000004 -10.306897 -87.334808 -148.162895 -159.691039 0.000005 0.000005 -12.404899 -126.197785 181.578475 -118.258373 -2.354799 -1.897202 5.063109 10.833712 15.444550 -2.574052 -4.375788 -0.000001 -0.000014 92.329083 -58.850884 177.893383 -0.000011 0.000006 -10.005006 -33.786292 19.245847 -103.158485 -0.000002 0.000000 -13.174895 102.173401 -223.003190 155.158443 2.240594 0.386802 -2.614105 155.235310 -18.670892 97.650074 0.000002 -0.000000 -18.592897 -20.036669 49.076036 -26.223878 0.000001 0.000000 -18.765797 -25.054505 58.745057 15.372136 -2.014897 -0.220892 -2.615901 -96.137098 -23.839431 -80.348276 -0.000001 0.000005 -18.633886 166.063755 31.003356 -173.601320 -0.000006 -0.000001 -18.285084 -41.491798 28.840805 -199.673873
-11.287402 24.720400 9.652206 1.916121 1.385785 -13.700273 -0.204898 1.598099 7.917308 -9.180345 23.424863 24.827102 -0.000001 -0.000001 3.404101 -17.048770 -15.306085 -3.864900 -0.000001 0.000001 7.928598 52.802666 9.134295 -20.820580 0.000002 0.000001 2.173904 5.929515 2.457332 9.244457 2.833804 -1.396297 4.843293 -0.728675 8.055191 39.280042 4.363594 0.000007 -0.000011 -32.316135 -5.459642 -103.002593 -0.000008 0.000002 -10.306900 -87.857495 -147.529818 -159.514779 0.000003 0.000005 -12.404900 -126.342968 181.933372 -116.783257 -2.354802 -1.897197 5.063103 10.950517 15.651921 -2.716863 -4.375793 0.000001 -0.000012 92.904889 -58.811870 178.536760 -0.000014 0.000006 -10.005007 -33.495166 19.341390 -103.192547 -0.000007 0.000004 -13.174889 102.305988 -222.995855 155.146135 2.240596 0.386801 -2.614103 155.160765 -18.896577 97.450291 0.000004 0.000002 -18.592897 -20.220869 49.130227 -26.013305 0.000002 0.000001 -18.765797 -24.816845 58.706856 15.420940 -2.014897 -0.220888 -2.615899 -96.021675 -23.993461 -80.155849 0.000000 0.000006 -18.633886 166.043210 31.042745 -173.613587 -0.000005 0.000000 -18.285086 -41.509368 28.758003 -199.639627
